<svg width="38" height="42" fill="none" xmlns="http://www.w3.org/2000/svg"><ellipse opacity=".3" cx="19" cy="21" rx="19" ry="21" fill="#D9D9D9"/><path d="M26.876 10.41a.612.612 0 01-.312-.083c-2.6-1.393-4.848-1.983-7.544-1.983-2.681 0-5.228.66-7.544 1.983-.328.185-.731.056-.921-.284a.727.727 0 01.271-.956 16.512 16.512 0 018.194-2.15c2.885 0 5.405.661 8.168 2.138a.703.703 0 01.284.942.662.662 0 01-.596.394zM7.494 17.795a.687.687 0 01-.393-.127.718.718 0 01-.162-.984c1.34-1.969 3.046-3.516 5.079-4.599 4.253-2.275 9.698-2.292 13.964-.014 2.032 1.083 3.738 2.616 5.08 4.57a.72.72 0 01-.163.985.66.66 0 01-.948-.169c-1.22-1.772-2.763-3.164-4.592-4.134-3.887-2.067-8.858-2.067-12.732.014-1.842.984-3.386 2.39-4.605 4.16a.586.586 0 01-.528.298zm8.465 16.976a.623.623 0 01-.474-.211c-1.178-1.226-1.817-2.016-2.722-3.715-.938-1.73-1.422-3.84-1.422-6.103 0-4.177 3.44-7.58 7.666-7.58 4.226 0 7.669 3.403 7.669 7.58a.677.677 0 11-1.354 0c0-3.404-2.831-6.174-6.312-6.174-3.48 0-6.315 2.77-6.315 6.174 0 2.025.433 3.895 1.26 5.414.867 1.617 1.464 2.306 2.506 3.403a.742.742 0 010 .996.729.729 0 01-.502.215zm9.712-2.602c-1.612 0-3.034-.422-4.199-1.252a7.565 7.565 0 01-3.223-6.173.677.677 0 111.355 0 6.111 6.111 0 002.628 5.006c.961.675 2.085.996 3.44.996a8.64 8.64 0 001.406-.14c.366-.07.718.183.785.576a.699.699 0 01-.554.816 8.917 8.917 0 01-1.638.169v.002zm-2.723 2.895a.764.764 0 01-.176-.029c-2.154-.618-3.562-1.448-5.039-2.953-1.897-1.954-2.939-4.556-2.939-7.34 0-2.279 1.87-4.135 4.171-4.135 2.303 0 4.172 1.856 4.172 4.135 0 1.504 1.26 2.728 2.817 2.728 1.558 0 2.818-1.224 2.818-2.728 0-5.302-4.402-9.605-9.82-9.605-3.847 0-7.368 2.222-8.953 5.667-.527 1.14-.799 2.475-.799 3.938 0 1.096.095 2.826.907 5.076.136.366-.04.774-.392.9a.664.664 0 01-.867-.41 16.195 16.195 0 01-.989-5.566c0-1.688.312-3.223.921-4.557 1.802-3.925 5.797-6.468 10.172-6.468 6.163 0 11.174 4.936 11.174 11.01 0 2.279-1.869 4.135-4.172 4.135-2.302 0-4.171-1.856-4.171-4.134 0-1.505-1.26-2.73-2.817-2.73-1.557 0-2.817 1.223-2.817 2.727 0 2.403.894 4.655 2.533 6.342 1.289 1.322 2.52 2.051 4.429 2.602.366.098.569.492.474.858a.667.667 0 01-.637.536z" fill="#fff"/></svg>