<svg width="38" height="42" viewBox="0 0 38 42" fill="none" xmlns="http://www.w3.org/2000/svg">
<ellipse opacity="0.3" cx="19" cy="21" rx="19" ry="21" fill="#D9D9D9"/>
<path d="M26.8762 10.4109C26.7666 10.4112 26.659 10.3821 26.5645 10.3266C23.9641 8.93438 21.7158 8.34376 19.0205 8.34376C16.3387 8.34376 13.7922 9.0047 11.476 10.3266C11.1485 10.5117 10.7448 10.3828 10.5549 10.043C10.4702 9.87895 10.4511 9.68882 10.5014 9.5112C10.5518 9.33359 10.6679 9.18182 10.8262 9.08673C13.3243 7.66992 16.1487 6.92913 19.0205 6.93751C21.9051 6.93751 24.4246 7.59845 27.1879 9.07501C27.3491 9.16365 27.4692 9.31196 27.5223 9.4881C27.5754 9.66424 27.5574 9.85419 27.4721 10.0172C27.4208 10.1329 27.3374 10.2315 27.2318 10.3013C27.1262 10.3711 27.0028 10.4091 26.8762 10.4109ZM7.49397 17.7938C7.35324 17.7928 7.21621 17.7486 7.10139 17.6672C6.95201 17.5562 6.85155 17.3915 6.82116 17.2079C6.79078 17.0243 6.83285 16.836 6.9385 16.6828C8.27971 14.7141 9.98538 13.1672 12.018 12.0844C16.2707 9.8086 21.7158 9.7922 25.9821 12.0703C28.0141 13.1531 29.7203 14.6859 31.0615 16.6406C31.1668 16.794 31.2086 16.9821 31.1782 17.1656C31.1478 17.3491 31.0477 17.5137 30.8987 17.625C30.8264 17.679 30.7437 17.7177 30.6559 17.7385C30.5681 17.7593 30.4769 17.7619 30.3881 17.7461C30.2992 17.7303 30.2145 17.6964 30.1393 17.6465C30.064 17.5967 29.9998 17.5319 29.9506 17.4563C28.7319 15.6844 27.1879 14.2922 25.3592 13.3219C21.4721 11.2547 16.501 11.2547 12.6274 13.3359C10.7852 14.3203 9.24124 15.7266 8.02249 17.4961C7.96993 17.5892 7.8929 17.6662 7.79974 17.7186C7.70658 17.7711 7.60084 17.7971 7.49397 17.7938ZM15.959 34.7695C15.8695 34.7704 15.7808 34.752 15.6991 34.7156C15.6173 34.6792 15.5443 34.6257 15.485 34.5586C14.3067 33.3328 13.668 32.543 12.7627 30.8438C11.8252 29.1141 11.3406 27.0047 11.3406 24.7406C11.3406 20.5641 14.7807 17.1609 19.0071 17.1609C23.2334 17.1609 26.6758 20.5641 26.6758 24.7406C26.6785 24.8312 26.6629 24.9214 26.6301 25.0059C26.5973 25.0904 26.5478 25.1674 26.4847 25.2324C26.4216 25.2974 26.346 25.3491 26.2626 25.3844C26.1791 25.4197 26.0894 25.4379 25.9988 25.4379C25.9081 25.4379 25.8184 25.4197 25.735 25.3844C25.6515 25.3491 25.5759 25.2974 25.5128 25.2324C25.4497 25.1674 25.4002 25.0904 25.3674 25.0059C25.3346 24.9214 25.319 24.8312 25.3217 24.7406C25.3217 21.3375 22.4905 18.5672 19.01 18.5672C15.5295 18.5672 12.6953 21.3375 12.6953 24.7406C12.6953 26.7656 13.1283 28.6359 13.9545 30.1547C14.8217 31.7719 15.4194 32.4609 16.4606 33.5578C16.5841 33.6943 16.6524 33.8718 16.6524 34.0559C16.6524 34.2399 16.5841 34.4174 16.4606 34.5539C16.3276 34.688 16.1478 34.7654 15.959 34.7695ZM25.6709 32.168C24.059 32.168 22.6369 31.7461 21.4721 30.9164C20.4797 30.2208 19.6689 29.2969 19.1081 28.2226C18.5473 27.1483 18.2528 25.9549 18.2494 24.743C18.2456 24.6517 18.2603 24.5605 18.2927 24.475C18.325 24.3895 18.3743 24.3115 18.4376 24.2455C18.5008 24.1795 18.5768 24.1271 18.6609 24.0912C18.7449 24.0553 18.8354 24.0369 18.9268 24.0369C19.0182 24.0369 19.1086 24.0553 19.1927 24.0912C19.2768 24.1271 19.3527 24.1795 19.416 24.2455C19.4793 24.3115 19.5286 24.3895 19.5609 24.475C19.5932 24.5605 19.6079 24.6517 19.6041 24.743C19.6064 25.7274 19.8465 26.6966 20.3039 27.5683C20.7614 28.4399 21.4227 29.1881 22.2315 29.7492C23.193 30.4242 24.3174 30.7453 25.6721 30.7453C26.1439 30.7369 26.6142 30.6899 27.0783 30.6047C27.444 30.5344 27.7961 30.7875 27.8635 31.1813C27.8978 31.363 27.8587 31.5509 27.7547 31.7038C27.6507 31.8567 27.4902 31.9621 27.3086 31.9969C26.7691 32.1035 26.2209 32.16 25.6709 32.1656V32.168ZM22.9481 35.0625C22.8886 35.06 22.8296 35.0506 22.7723 35.0344C20.6184 34.4156 19.2098 33.5859 17.7332 32.0813C15.8365 30.1266 14.7942 27.525 14.7942 24.7406C14.7942 22.4625 16.6633 20.6063 18.9655 20.6063C21.2676 20.6063 23.1373 22.4625 23.1373 24.7406C23.1373 26.2453 24.3971 27.4688 25.9545 27.4688C27.5119 27.4688 28.7717 26.2453 28.7717 24.7406C28.7717 19.4391 24.3696 15.1359 18.952 15.1359C15.1053 15.1359 11.5838 17.3578 9.99944 20.8031C9.47209 21.9422 9.20022 23.2781 9.20022 24.7406C9.20022 25.8375 9.29456 27.5672 10.1073 29.8172C10.2432 30.1828 10.0668 30.5906 9.71467 30.7172C9.63098 30.7491 9.54171 30.7637 9.45223 30.7602C9.36275 30.7567 9.27489 30.7351 9.19395 30.6968C9.11301 30.6585 9.04064 30.6042 8.9812 30.5373C8.92177 30.4703 8.87648 30.392 8.84807 30.307C8.19456 28.5239 7.85977 26.6397 7.85901 24.7406C7.85901 23.0531 8.17073 21.518 8.7801 20.1844C10.5819 16.2586 14.5774 13.7156 18.952 13.7156C25.1149 13.7156 30.1264 18.6516 30.1264 24.7266C30.1264 27.0047 28.2572 28.8609 25.9545 28.8609C23.6518 28.8609 21.7826 27.0047 21.7826 24.7266C21.7832 23.2219 20.5235 21.9961 18.966 21.9961C17.4086 21.9961 16.1489 23.2195 16.1489 24.7242C16.1489 27.1266 17.043 29.3789 18.6819 31.0664C19.9709 32.3883 21.2014 33.1172 23.111 33.668C23.4766 33.7664 23.6799 34.1602 23.585 34.5258C23.5554 34.6742 23.4763 34.8082 23.3605 34.9057C23.2448 35.0032 23.0994 35.0585 22.9481 35.0625Z" fill="white"/>
</svg>
